<svg width="65" height="48" viewBox="0 0 65 48" fill="none" xmlns="http://www.w3.org/2000/svg">
<path d="M11.5 36L0 20L5.10611 19.149C5.67423 19.0543 6.25561 19.2091 6.70138 19.5739L9.55685 21.9101C10.7795 22.9105 12.4031 23.2742 13.9357 22.8911L23.5 20.5L13.5 2L16.6597 1.0521C17.7814 0.715584 18.9964 1.06257 19.7712 1.94072L32.2776 16.1147C33.0272 16.9641 34.1913 17.3189 35.2872 17.0319L52.3338 12.5673C53.7117 12.2065 55.1781 12.452 56.3632 13.2421C59.8429 15.5619 59.093 20.877 55.1073 22.1435L11.5 36Z" fill="#051039"/>
<rect x="5" y="47" width="37" height="1" fill="#051039"/>
</svg>
