<svg width="96" height="95" viewBox="0 0 96 95" fill="none" xmlns="http://www.w3.org/2000/svg">
<path d="M0 88.5V14.5C0 11.1863 2.68629 8.5 6 8.5H90C93.3137 8.5 96 11.1863 96 14.5V88.5C96 91.8137 93.3137 94.5 90 94.5H6C2.68629 94.5 0 91.8137 0 88.5Z" fill="#051039"/>
<path d="M29 8H19C17.3431 8 16 9.34315 16 11V20.5996C16 21.2377 16.2154 21.8571 16.6114 22.3575L16.755 22.5389C20.5337 27.3137 27.8123 27.2071 31.4496 22.3238C31.807 21.844 32 21.2618 32 20.6636V11C32 9.34315 30.6569 8 29 8Z" fill="white"/>
<path d="M77 8H67C65.3431 8 64 9.34315 64 11V20.5996C64 21.2377 64.2154 21.8571 64.6114 22.3575L64.755 22.5389C68.5337 27.3137 75.8123 27.2071 79.4496 22.3238C79.807 21.844 80 21.2618 80 20.6636V11C80 9.34315 78.6569 8 77 8Z" fill="white"/>
<rect x="6" y="32" width="84" height="56" fill="white"/>
<path d="M24.5 0.5H24C21.7909 0.5 20 2.29086 20 4.5V17.5C20 19.7091 21.7909 21.5 24 21.5H24.5C26.7091 21.5 28.5 19.7091 28.5 17.5V4.5C28.5 2.29086 26.7091 0.5 24.5 0.5Z" fill="#051039"/>
<path d="M72.5 0H72C69.7909 0 68 1.79086 68 4V17C68 19.2091 69.7909 21 72 21H72.5C74.7091 21 76.5 19.2091 76.5 17V4C76.5 1.79086 74.7091 0 72.5 0Z" fill="#051039"/>
<rect x="51" y="40" width="12" height="11" rx="1" fill="#"/>
<rect x="51" y="40" width="12" height="11" rx="1" fill="#051039"/>
<rect x="69" y="40" width="12" height="11" rx="1" fill="#051039"/>
<rect x="69" y="56" width="12" height="11" rx="1" fill="#051039"/>
<rect x="51" y="56" width="12" height="11" rx="1" fill="#051039"/>
<rect x="33" y="56" width="12" height="11" rx="1" fill="#051039"/>
<rect x="15" y="56" width="12" height="11" rx="1" fill="#051039"/>
<rect x="15" y="72" width="12" height="11" rx="1" fill="#051039"/>
<rect x="33" y="72" width="12" height="11" rx="1" fill="#051039"/>
<rect x="51" y="72" width="12" height="11" rx="1" fill="#051039"/>
<rect x="69" y="72" width="12" height="11" rx="1" fill="#051039"/>
</svg>
